<?xml version="1.0" encoding="UTF-8" standalone="no"?>
<!-- Created with Inkscape (http://www.inkscape.org/) -->

<svg
   width="33.866669mm"
   height="33.866669mm"
   viewBox="0 0 128.00001 128.00001"
   version="1.1"
   id="svg1"
   xmlns="http://www.w3.org/2000/svg"
   xmlns:svg="http://www.w3.org/2000/svg">
  <defs
     id="defs1" />
  <path
     id="rect5"
     style="fill:#00e548;stroke-width:1.51181"
     d="M -4.4764505e-7,13.012132 H 128.00001 V 114.87207 H -4.4764499e-7 Z" />
  <path
     id="rect2"
     style="fill:#ffffff;fill-opacity:1;stroke-width:1.51181"
     d="M 4.8795576,1.8162056e-8 A 4.8791371,4.8791371 0 0 0 -4.4764505e-7,4.87955 v 8.132582 H 44.000162 c 1.504765,0 2.437152,0.752259 2.437152,2.042356 0,1.116579 -0.455251,1.842714 -0.921175,2.947733 L 7.9167662,111.10845 c -1.0388145,2.54363 -2.8247562,3.76362 -5.063793,3.76362 H -4.4764505e-7 v 8.25365 A 4.8791371,4.8791371 0 0 0 4.8795576,128.00001 H 123.12048 a 4.8791371,4.8791371 0 0 0 4.87953,-4.87429 v -8.25365 c -1.92841,0 -3.3593,-1.29423 -4.06366,-2.85824 L 81.973287,17.902209 c -0.441883,-0.997105 -0.79483,-1.916369 -0.79483,-2.758233 0,-1.122691 0.86024,-2.131844 2.221304,-2.131844 H 128.00001 V 4.87955 A 4.8791371,4.8791371 0 0 0 123.12048,1.8162056e-8 Z M 64.002645,35.620187 80.925795,76.430484 H 48.611265 Z M 41.557756,94.506401 h 46.947922 c 0,0 7.011385,15.887629 7.011385,17.607439 0,1.32556 -1.267006,2.75823 -3.45834,2.75823 H 38.804796 c -2.078276,0 -3.410961,-1.22257 -3.410961,-2.85824 0,-1.62449 6.092393,-17.340512 6.163921,-17.507429 z" />
</svg>
